# Blender v2.78 (sub 0) OBJ File: 'line1.blend'
# www.blender.org
mtllib line2.mtl
o Cube.001_Cube.002
v 5.867012 3.784092 3.217399
v 4.733960 2.352976 1.736645
v 5.911929 3.770855 3.195823
v 4.778876 2.339739 1.715069
v 5.872580 3.739187 3.256539
v 4.739527 2.308071 1.775785
v 5.917497 3.725950 3.234962
v 4.784445 2.294834 1.754209
v 5.846779 3.758536 3.190957
v 5.826546 3.732980 3.164515
v 5.806313 3.707425 3.138073
v 5.786079 3.681869 3.111631
v 5.765847 3.656314 3.085189
v 5.745613 3.630758 3.058746
v 5.725380 3.605202 3.032305
v 5.705147 3.579647 3.005863
v 5.684915 3.554091 2.979421
v 5.664681 3.528536 2.952980
v 5.644447 3.502980 2.926537
v 5.624215 3.477425 2.900095
v 5.603982 3.451869 2.873653
v 5.583749 3.426313 2.847211
v 5.563516 3.400758 2.820769
v 5.543283 3.375202 2.794327
v 5.523050 3.349646 2.767884
v 5.502817 3.324090 2.741443
v 5.482583 3.298535 2.715001
v 5.462351 3.272979 2.688559
v 5.442118 3.247424 2.662117
v 5.421885 3.221868 2.635675
v 5.401650 3.196312 2.609232
v 5.381418 3.170757 2.582790
v 5.361185 3.145201 2.556348
v 5.340952 3.119646 2.529906
v 5.320720 3.094090 2.503465
v 5.300486 3.068534 2.477022
v 5.280253 3.042979 2.450580
v 5.260020 3.017423 2.424139
v 5.239787 2.991868 2.397696
v 5.219553 2.966312 2.371254
v 5.199320 2.940756 2.344812
v 5.179088 2.915201 2.318370
v 5.158854 2.889645 2.291928
v 5.138621 2.864089 2.265486
v 5.118388 2.838533 2.239043
v 5.098155 2.812978 2.212602
v 5.077922 2.787422 2.186160
v 5.057689 2.761867 2.159717
v 5.037456 2.736311 2.133276
v 5.017223 2.710755 2.106833
v 4.996990 2.685200 2.080391
v 4.976757 2.659644 2.053949
v 4.956523 2.634089 2.027507
v 4.936290 2.608533 2.001065
v 4.916058 2.582977 1.974624
v 4.895824 2.557422 1.948181
v 4.875591 2.531866 1.921739
v 4.855358 2.506310 1.895298
v 4.835125 2.480755 1.868855
v 4.814892 2.455199 1.842413
v 4.794659 2.429643 1.815971
v 4.774426 2.404088 1.789529
v 4.754193 2.378532 1.763087
v 4.799109 2.365295 1.741510
v 4.819343 2.390851 1.767952
v 4.839576 2.416407 1.794395
v 4.859809 2.441962 1.820837
v 4.880042 2.467518 1.847279
v 4.900275 2.493073 1.873721
v 4.920508 2.518629 1.900163
v 4.940741 2.544185 1.926604
v 4.960974 2.569740 1.953047
v 4.981207 2.595296 1.979488
v 5.001440 2.620852 2.005931
v 5.021673 2.646407 2.032372
v 5.041907 2.671963 2.058815
v 5.062140 2.697518 2.085257
v 5.082372 2.723074 2.111699
v 5.102606 2.748630 2.138141
v 5.122839 2.774185 2.164583
v 5.143072 2.799741 2.191025
v 5.163305 2.825296 2.217467
v 5.183538 2.850852 2.243909
v 5.203771 2.876408 2.270351
v 5.224004 2.901963 2.296793
v 5.244237 2.927519 2.323236
v 5.264471 2.953074 2.349677
v 5.284703 2.978630 2.376119
v 5.304936 3.004186 2.402562
v 5.325170 3.029742 2.429004
v 5.345403 3.055297 2.455446
v 5.365636 3.080853 2.481888
v 5.385869 3.106409 2.508330
v 5.406102 3.131964 2.534772
v 5.426334 3.157520 2.561214
v 5.446568 3.183075 2.587656
v 5.466801 3.208631 2.614098
v 5.487035 3.234187 2.640541
v 5.507267 3.259742 2.666982
v 5.527500 3.285298 2.693424
v 5.547733 3.310853 2.719866
v 5.567966 3.336409 2.746308
v 5.588200 3.361965 2.772750
v 5.608433 3.387521 2.799192
v 5.628665 3.413076 2.825634
v 5.648898 3.438632 2.852076
v 5.669132 3.464188 2.878518
v 5.689365 3.489743 2.904961
v 5.709598 3.515299 2.931402
v 5.729832 3.540854 2.957844
v 5.750064 3.566410 2.984287
v 5.770297 3.591965 3.010729
v 5.790530 3.617521 3.037170
v 5.810763 3.643077 3.063613
v 5.830997 3.668633 3.090055
v 5.851229 3.694188 3.116497
v 5.871462 3.719743 3.142940
v 5.891696 3.745299 3.169381
v 4.804677 2.320390 1.780650
v 4.824910 2.345946 1.807092
v 4.845143 2.371501 1.833534
v 4.865376 2.397057 1.859976
v 4.885610 2.422613 1.886418
v 4.905842 2.448168 1.912861
v 4.926076 2.473723 1.939302
v 4.946309 2.499279 1.965745
v 4.966541 2.524835 1.992187
v 4.986775 2.550391 2.018628
v 5.007008 2.575946 2.045070
v 5.027241 2.601501 2.071513
v 5.047474 2.627058 2.097955
v 5.067708 2.652613 2.124396
v 5.087940 2.678169 2.150838
v 5.108173 2.703724 2.177281
v 5.128407 2.729280 2.203723
v 5.148639 2.754836 2.230165
v 5.168872 2.780391 2.256607
v 5.189106 2.805947 2.283050
v 5.209339 2.831502 2.309491
v 5.229571 2.857058 2.335934
v 5.249804 2.882614 2.362375
v 5.270038 2.908169 2.388817
v 5.290271 2.933725 2.415259
v 5.310504 2.959280 2.441700
v 5.330737 2.984836 2.468143
v 5.350970 3.010392 2.494586
v 5.371203 3.035948 2.521028
v 5.391436 3.061503 2.547470
v 5.411669 3.087059 2.573911
v 5.431903 3.112614 2.600354
v 5.452135 3.138170 2.626796
v 5.472369 3.163726 2.653238
v 5.492601 3.189281 2.679679
v 5.512835 3.214837 2.706121
v 5.533068 3.240393 2.732564
v 5.553301 3.265948 2.759006
v 5.573534 3.291504 2.785448
v 5.593767 3.317060 2.811890
v 5.614000 3.342615 2.838332
v 5.634233 3.368171 2.864774
v 5.654467 3.393726 2.891216
v 5.674700 3.419282 2.917658
v 5.694932 3.444838 2.944100
v 5.715166 3.470393 2.970541
v 5.735398 3.495949 2.996984
v 5.755631 3.521504 3.023426
v 5.775866 3.547060 3.049869
v 5.796098 3.572616 3.076311
v 5.816331 3.598171 3.102752
v 5.836564 3.623727 3.129194
v 5.856797 3.649283 3.155637
v 5.877030 3.674838 3.182078
v 5.897263 3.700394 3.208520
v 4.759760 2.333627 1.802227
v 4.779994 2.359183 1.828669
v 4.800226 2.384738 1.855111
v 4.820460 2.410294 1.881552
v 4.840693 2.435850 1.907995
v 4.860926 2.461405 1.934437
v 4.881159 2.486960 1.960878
v 4.901392 2.512516 1.987321
v 4.921625 2.538072 2.013762
v 4.941858 2.563628 2.040205
v 4.962091 2.589183 2.066648
v 4.982325 2.614738 2.093089
v 5.002557 2.640295 2.119531
v 5.022790 2.665850 2.145973
v 5.043023 2.691405 2.172414
v 5.063256 2.716961 2.198857
v 5.083489 2.742517 2.225299
v 5.103723 2.768073 2.251741
v 5.123956 2.793628 2.278183
v 5.144188 2.819184 2.304626
v 5.164422 2.844739 2.331068
v 5.184655 2.870295 2.357510
v 5.204887 2.895851 2.383952
v 5.225121 2.921406 2.410393
v 5.245354 2.946962 2.436836
v 5.265588 2.972517 2.463278
v 5.285820 2.998073 2.489719
v 5.306054 3.023629 2.516162
v 5.326286 3.049185 2.542604
v 5.346519 3.074740 2.569046
v 5.366753 3.100296 2.595488
v 5.386986 3.125851 2.621930
v 5.407219 3.151407 2.648372
v 5.427452 3.176963 2.674814
v 5.447685 3.202518 2.701256
v 5.467918 3.228074 2.727698
v 5.488152 3.253630 2.754140
v 5.508384 3.279185 2.780582
v 5.528617 3.304741 2.807024
v 5.548850 3.330297 2.833466
v 5.569083 3.355852 2.859908
v 5.589316 3.381408 2.886351
v 5.609550 3.406963 2.912792
v 5.629783 3.432519 2.939234
v 5.650016 3.458075 2.965676
v 5.670249 3.483630 2.992118
v 5.690482 3.509186 3.018561
v 5.710715 3.534741 3.045003
v 5.730948 3.560297 3.071445
v 5.751181 3.585853 3.097887
v 5.771414 3.611408 3.124329
v 5.791648 3.636964 3.150771
v 5.811881 3.662520 3.177213
v 5.832113 3.688075 3.203654
v 5.852346 3.713631 3.230097
v 5.891137 3.745464 3.169649
v 5.911370 3.771019 3.196091
v 5.916939 3.726114 3.235231
v 4.778318 2.339904 1.715337
v 4.783886 2.294999 1.754476
v 5.896705 3.700558 3.208788
v 4.798552 2.365460 1.741778
v 4.804119 2.320554 1.780918
vn 0.0931 -0.7506 0.6542
vn -0.0925 0.7509 -0.6540
vn -0.0931 0.7506 -0.6542
vn 0.8712 -0.2568 -0.4185
vn -0.4821 -0.6089 -0.6300
vn 0.4821 0.6089 0.6300
vn 0.8712 -0.2567 -0.4185
vn -0.4819 -0.6086 -0.6303
vn -0.8712 0.2567 0.4185
vn -0.8712 0.2568 0.4185
vn 0.0930 -0.7506 0.6542
vn -0.4820 -0.6090 -0.6300
vn 0.0930 -0.7507 0.6541
vn -0.0924 0.7503 -0.6546
vn 0.0931 -0.7507 0.6540
vn 0.4818 0.6092 0.6299
vn 0.4825 0.6085 0.6300
usemtl None
s off
f 63//1 2//1 4//1 64//1
f 3//2 118//2 229//2 230//2
f 119//3 8//3 6//3 174//3
f 174//4 6//4 2//4 63//4
f 3//5 7//5 5//5 1//5
f 8//6 4//6 2//6 6//6
f 5//7 228//7 9//7 1//7
f 228//7 227//7 10//7 9//7
f 227//7 226//7 11//7 10//7
f 226//7 225//7 12//7 11//7
f 225//7 224//7 13//7 12//7
f 224//7 223//7 14//7 13//7
f 223//7 222//7 15//7 14//7
f 222//7 221//7 16//7 15//7
f 221//7 220//7 17//7 16//7
f 220//7 219//7 18//7 17//7
f 219//7 218//7 19//7 18//7
f 218//7 217//7 20//7 19//7
f 217//7 216//7 21//7 20//7
f 216//7 215//7 22//7 21//7
f 215//7 214//7 23//7 22//7
f 214//7 213//7 24//7 23//7
f 213//4 212//4 25//4 24//4
f 212//7 211//7 26//7 25//7
f 211//7 210//7 27//7 26//7
f 210//7 209//7 28//7 27//7
f 209//7 208//7 29//7 28//7
f 208//7 207//7 30//7 29//7
f 207//7 206//7 31//7 30//7
f 206//7 205//7 32//7 31//7
f 205//7 204//7 33//7 32//7
f 204//4 203//4 34//4 33//4
f 203//7 202//7 35//7 34//7
f 202//7 201//7 36//7 35//7
f 201//7 200//7 37//7 36//7
f 200//7 199//7 38//7 37//7
f 199//4 198//4 39//4 38//4
f 198//7 197//7 40//7 39//7
f 197//7 196//7 41//7 40//7
f 196//7 195//7 42//7 41//7
f 195//7 194//7 43//7 42//7
f 194//7 193//7 44//7 43//7
f 193//7 192//7 45//7 44//7
f 192//7 191//7 46//7 45//7
f 191//7 190//7 47//7 46//7
f 190//7 189//7 48//7 47//7
f 189//7 188//7 49//7 48//7
f 188//7 187//7 50//7 49//7
f 187//7 186//7 51//7 50//7
f 186//7 185//7 52//7 51//7
f 185//7 184//7 53//7 52//7
f 184//7 183//7 54//7 53//7
f 183//7 182//7 55//7 54//7
f 182//7 181//7 56//7 55//7
f 181//7 180//7 57//7 56//7
f 180//7 179//7 58//7 57//7
f 179//7 178//7 59//7 58//7
f 178//7 177//7 60//7 59//7
f 177//7 176//7 61//7 60//7
f 176//7 175//7 62//7 61//7
f 175//7 174//7 63//7 62//7
f 7//3 173//3 228//3 5//3
f 173//3 172//3 227//3 228//3
f 172//3 171//3 226//3 227//3
f 171//3 170//3 225//3 226//3
f 170//3 169//3 224//3 225//3
f 169//3 168//3 223//3 224//3
f 168//3 167//3 222//3 223//3
f 167//3 166//3 221//3 222//3
f 166//3 165//3 220//3 221//3
f 165//3 164//3 219//3 220//3
f 164//3 163//3 218//3 219//3
f 163//3 162//3 217//3 218//3
f 162//3 161//3 216//3 217//3
f 161//3 160//3 215//3 216//3
f 160//3 159//3 214//3 215//3
f 159//3 158//3 213//3 214//3
f 158//3 157//3 212//3 213//3
f 157//3 156//3 211//3 212//3
f 156//3 155//3 210//3 211//3
f 155//3 154//3 209//3 210//3
f 154//3 153//3 208//3 209//3
f 153//3 152//3 207//3 208//3
f 152//3 151//3 206//3 207//3
f 151//3 150//3 205//3 206//3
f 150//3 149//3 204//3 205//3
f 149//3 148//3 203//3 204//3
f 148//3 147//3 202//3 203//3
f 147//3 146//3 201//3 202//3
f 146//3 145//3 200//3 201//3
f 145//3 144//3 199//3 200//3
f 144//3 143//3 198//3 199//3
f 143//3 142//3 197//3 198//3
f 142//3 141//3 196//3 197//3
f 141//3 140//3 195//3 196//3
f 140//3 139//3 194//3 195//3
f 139//3 138//3 193//3 194//3
f 138//3 137//3 192//3 193//3
f 137//3 136//3 191//3 192//3
f 136//3 135//3 190//3 191//3
f 135//3 134//3 189//3 190//3
f 134//3 133//3 188//3 189//3
f 133//3 132//3 187//3 188//3
f 132//3 131//3 186//3 187//3
f 131//3 130//3 185//3 186//3
f 130//3 129//3 184//3 185//3
f 129//3 128//3 183//3 184//3
f 128//3 127//3 182//3 183//3
f 127//3 126//3 181//3 182//3
f 126//3 125//3 180//3 181//3
f 125//3 124//3 179//3 180//3
f 124//3 123//3 178//3 179//3
f 123//3 122//3 177//3 178//3
f 122//3 121//3 176//3 177//3
f 121//3 120//3 175//3 176//3
f 120//3 119//3 174//3 175//3
f 4//8 8//8 233//8 232//8
f 118//9 117//9 172//9 173//9
f 117//9 116//9 171//9 172//9
f 116//9 115//9 170//9 171//9
f 115//9 114//9 169//9 170//9
f 114//9 113//9 168//9 169//9
f 113//9 112//9 167//9 168//9
f 112//9 111//9 166//9 167//9
f 111//9 110//9 165//9 166//9
f 110//9 109//9 164//9 165//9
f 109//9 108//9 163//9 164//9
f 108//9 107//9 162//9 163//9
f 107//9 106//9 161//9 162//9
f 106//9 105//9 160//9 161//9
f 105//9 104//9 159//9 160//9
f 104//9 103//9 158//9 159//9
f 103//9 102//9 157//9 158//9
f 102//9 101//9 156//9 157//9
f 101//10 100//10 155//10 156//10
f 100//9 99//9 154//9 155//9
f 99//9 98//9 153//9 154//9
f 98//9 97//9 152//9 153//9
f 97//9 96//9 151//9 152//9
f 96//9 95//9 150//9 151//9
f 95//9 94//9 149//9 150//9
f 94//9 93//9 148//9 149//9
f 93//9 92//9 147//9 148//9
f 92//9 91//9 146//9 147//9
f 91//9 90//9 145//9 146//9
f 90//9 89//9 144//9 145//9
f 89//9 88//9 143//9 144//9
f 88//9 87//9 142//9 143//9
f 87//9 86//9 141//9 142//9
f 86//9 85//9 140//9 141//9
f 85//9 84//9 139//9 140//9
f 84//9 83//9 138//9 139//9
f 83//9 82//9 137//9 138//9
f 82//9 81//9 136//9 137//9
f 81//9 80//9 135//9 136//9
f 80//9 79//9 134//9 135//9
f 79//9 78//9 133//9 134//9
f 78//9 77//9 132//9 133//9
f 77//9 76//9 131//9 132//9
f 76//9 75//9 130//9 131//9
f 75//9 74//9 129//9 130//9
f 74//9 73//9 128//9 129//9
f 73//9 72//9 127//9 128//9
f 72//9 71//9 126//9 127//9
f 71//9 70//9 125//9 126//9
f 70//10 69//10 124//10 125//10
f 69//9 68//9 123//9 124//9
f 68//9 67//9 122//9 123//9
f 67//9 66//9 121//9 122//9
f 66//9 65//9 120//9 121//9
f 65//9 64//9 119//9 120//9
f 1//1 9//1 118//1 3//1
f 9//1 10//1 117//1 118//1
f 10//11 11//11 116//11 117//11
f 11//1 12//1 115//1 116//1
f 12//1 13//1 114//1 115//1
f 13//1 14//1 113//1 114//1
f 14//1 15//1 112//1 113//1
f 15//1 16//1 111//1 112//1
f 16//1 17//1 110//1 111//1
f 17//1 18//1 109//1 110//1
f 18//1 19//1 108//1 109//1
f 19//1 20//1 107//1 108//1
f 20//1 21//1 106//1 107//1
f 21//1 22//1 105//1 106//1
f 22//1 23//1 104//1 105//1
f 23//1 24//1 103//1 104//1
f 24//1 25//1 102//1 103//1
f 25//1 26//1 101//1 102//1
f 26//1 27//1 100//1 101//1
f 27//1 28//1 99//1 100//1
f 28//1 29//1 98//1 99//1
f 29//1 30//1 97//1 98//1
f 30//1 31//1 96//1 97//1
f 31//1 32//1 95//1 96//1
f 32//1 33//1 94//1 95//1
f 33//1 34//1 93//1 94//1
f 34//1 35//1 92//1 93//1
f 35//1 36//1 91//1 92//1
f 36//1 37//1 90//1 91//1
f 37//1 38//1 89//1 90//1
f 38//1 39//1 88//1 89//1
f 39//1 40//1 87//1 88//1
f 40//1 41//1 86//1 87//1
f 41//1 42//1 85//1 86//1
f 42//1 43//1 84//1 85//1
f 43//1 44//1 83//1 84//1
f 44//1 45//1 82//1 83//1
f 45//1 46//1 81//1 82//1
f 46//1 47//1 80//1 81//1
f 47//1 48//1 79//1 80//1
f 48//1 49//1 78//1 79//1
f 49//1 50//1 77//1 78//1
f 50//1 51//1 76//1 77//1
f 51//1 52//1 75//1 76//1
f 52//1 53//1 74//1 75//1
f 53//1 54//1 73//1 74//1
f 54//1 55//1 72//1 73//1
f 55//1 56//1 71//1 72//1
f 56//1 57//1 70//1 71//1
f 57//1 58//1 69//1 70//1
f 58//1 59//1 68//1 69//1
f 59//1 60//1 67//1 68//1
f 60//1 61//1 66//1 67//1
f 61//1 62//1 65//1 66//1
f 62//1 63//1 64//1 65//1
f 235//9 232//9 233//9 236//9
f 230//9 229//9 234//9 231//9
f 118//12 173//12 234//12 229//12
f 8//13 119//13 236//13 233//13
f 64//14 4//14 232//14 235//14
f 173//15 7//15 231//15 234//15
f 7//16 3//16 230//16 231//16
f 119//17 64//17 235//17 236//17
