# Blender v2.78 (sub 0) OBJ File: 'line1.blend'
# www.blender.org
mtllib line1.mtl
o Cube_Cube.001
v 3.412515 1.512852 2.860916
v 3.412515 3.863285 2.860916
v 3.412515 1.512852 2.809357
v 3.412515 3.863285 2.809357
v 3.352687 1.512852 2.860916
v 3.352687 3.863285 2.860916
v 3.352687 1.512852 2.809357
v 3.352687 3.863285 2.809357
v 3.412515 1.554824 2.860916
v 3.412515 1.596797 2.860916
v 3.412515 1.638768 2.860916
v 3.412515 1.680740 2.860916
v 3.412515 1.722713 2.860916
v 3.412515 1.764684 2.860916
v 3.412515 1.806656 2.860916
v 3.412515 1.848629 2.860916
v 3.412515 1.890600 2.860916
v 3.412515 1.932572 2.860916
v 3.412515 1.974545 2.860916
v 3.412515 2.016516 2.860916
v 3.412515 2.058488 2.860916
v 3.412515 2.100460 2.860916
v 3.412515 2.142432 2.860916
v 3.412515 2.184404 2.860916
v 3.412515 2.226377 2.860916
v 3.412515 2.268348 2.860916
v 3.412515 2.310320 2.860916
v 3.412515 2.352293 2.860916
v 3.412515 2.394264 2.860916
v 3.412515 2.436236 2.860916
v 3.412515 2.478209 2.860916
v 3.412515 2.520180 2.860916
v 3.412515 2.562152 2.860916
v 3.412515 2.604125 2.860916
v 3.412515 2.646096 2.860916
v 3.412515 2.688068 2.860916
v 3.412515 2.730041 2.860916
v 3.412515 2.772012 2.860916
v 3.412515 2.813984 2.860916
v 3.412515 2.855957 2.860916
v 3.412515 2.897928 2.860916
v 3.412515 2.939900 2.860916
v 3.412515 2.981873 2.860916
v 3.412515 3.023845 2.860916
v 3.412515 3.065817 2.860916
v 3.412515 3.107789 2.860916
v 3.412515 3.149761 2.860916
v 3.412515 3.191733 2.860916
v 3.412515 3.233705 2.860916
v 3.412515 3.275677 2.860916
v 3.412515 3.317649 2.860916
v 3.412515 3.359621 2.860916
v 3.412515 3.401593 2.860916
v 3.412515 3.443565 2.860916
v 3.412515 3.485537 2.860916
v 3.412515 3.527509 2.860916
v 3.412515 3.569481 2.860916
v 3.412515 3.611453 2.860916
v 3.412515 3.653425 2.860916
v 3.412515 3.695397 2.860916
v 3.412515 3.737369 2.860916
v 3.412515 3.779341 2.860916
v 3.412515 3.821313 2.860916
v 3.412515 3.821313 2.809357
v 3.412515 3.779341 2.809357
v 3.412515 3.737369 2.809357
v 3.412515 3.695397 2.809357
v 3.412515 3.653425 2.809357
v 3.412515 3.611453 2.809357
v 3.412515 3.569481 2.809357
v 3.412515 3.527509 2.809357
v 3.412515 3.485537 2.809357
v 3.412515 3.443565 2.809357
v 3.412515 3.401593 2.809357
v 3.412515 3.359621 2.809357
v 3.412515 3.317649 2.809357
v 3.412515 3.275677 2.809357
v 3.412515 3.233705 2.809357
v 3.412515 3.191733 2.809357
v 3.412515 3.149761 2.809357
v 3.412515 3.107789 2.809357
v 3.412515 3.065817 2.809357
v 3.412515 3.023845 2.809357
v 3.412515 2.981873 2.809357
v 3.412515 2.939901 2.809357
v 3.412515 2.897929 2.809357
v 3.412515 2.855957 2.809357
v 3.412515 2.813985 2.809357
v 3.412515 2.772013 2.809357
v 3.412515 2.730041 2.809357
v 3.412515 2.688068 2.809357
v 3.412515 2.646096 2.809357
v 3.412515 2.604125 2.809357
v 3.412515 2.562153 2.809357
v 3.412515 2.520181 2.809357
v 3.412515 2.478209 2.809357
v 3.412515 2.436236 2.809357
v 3.412515 2.394264 2.809357
v 3.412515 2.352293 2.809357
v 3.412515 2.310320 2.809357
v 3.412515 2.268348 2.809357
v 3.412515 2.226377 2.809357
v 3.412515 2.184404 2.809357
v 3.412515 2.142432 2.809357
v 3.412515 2.100461 2.809357
v 3.412515 2.058488 2.809357
v 3.412515 2.016516 2.809357
v 3.412515 1.974545 2.809357
v 3.412515 1.932572 2.809357
v 3.412515 1.890600 2.809357
v 3.412515 1.848629 2.809357
v 3.412515 1.806656 2.809357
v 3.412515 1.764684 2.809357
v 3.412515 1.722713 2.809357
v 3.412515 1.680740 2.809357
v 3.412515 1.638768 2.809357
v 3.412515 1.596797 2.809357
v 3.412515 1.554824 2.809357
v 3.352687 3.821313 2.809357
v 3.352687 3.779341 2.809357
v 3.352687 3.737369 2.809357
v 3.352687 3.695397 2.809357
v 3.352687 3.653425 2.809357
v 3.352687 3.611453 2.809357
v 3.352687 3.569481 2.809357
v 3.352687 3.527509 2.809357
v 3.352687 3.485537 2.809357
v 3.352687 3.443565 2.809357
v 3.352687 3.401593 2.809357
v 3.352687 3.359621 2.809357
v 3.352687 3.317649 2.809357
v 3.352687 3.275677 2.809357
v 3.352687 3.233705 2.809357
v 3.352687 3.191733 2.809357
v 3.352687 3.149761 2.809357
v 3.352687 3.107789 2.809357
v 3.352687 3.065817 2.809357
v 3.352687 3.023845 2.809357
v 3.352687 2.981873 2.809357
v 3.352687 2.939901 2.809357
v 3.352687 2.897929 2.809357
v 3.352687 2.855957 2.809357
v 3.352687 2.813985 2.809357
v 3.352687 2.772013 2.809357
v 3.352687 2.730041 2.809357
v 3.352687 2.688068 2.809357
v 3.352687 2.646096 2.809357
v 3.352687 2.604125 2.809357
v 3.352687 2.562153 2.809357
v 3.352687 2.520181 2.809357
v 3.352687 2.478209 2.809357
v 3.352687 2.436236 2.809357
v 3.352687 2.394264 2.809357
v 3.352687 2.352293 2.809357
v 3.352687 2.310320 2.809357
v 3.352687 2.268348 2.809357
v 3.352687 2.226377 2.809357
v 3.352687 2.184404 2.809357
v 3.352687 2.142432 2.809357
v 3.352687 2.100461 2.809357
v 3.352687 2.058488 2.809357
v 3.352687 2.016516 2.809357
v 3.352687 1.974545 2.809357
v 3.352687 1.932572 2.809357
v 3.352687 1.890600 2.809357
v 3.352687 1.848629 2.809357
v 3.352687 1.806656 2.809357
v 3.352687 1.764684 2.809357
v 3.352687 1.722713 2.809357
v 3.352687 1.680740 2.809357
v 3.352687 1.638768 2.809357
v 3.352687 1.596797 2.809357
v 3.352687 1.554824 2.809357
v 3.352687 3.821313 2.860916
v 3.352687 3.779341 2.860916
v 3.352687 3.737369 2.860916
v 3.352687 3.695397 2.860916
v 3.352687 3.653425 2.860916
v 3.352687 3.611453 2.860916
v 3.352687 3.569481 2.860916
v 3.352687 3.527509 2.860916
v 3.352687 3.485537 2.860916
v 3.352687 3.443565 2.860916
v 3.352687 3.401593 2.860916
v 3.352687 3.359621 2.860916
v 3.352687 3.317649 2.860916
v 3.352687 3.275677 2.860916
v 3.352687 3.233705 2.860916
v 3.352687 3.191733 2.860916
v 3.352687 3.149761 2.860916
v 3.352687 3.107789 2.860916
v 3.352687 3.065817 2.860916
v 3.352687 3.023845 2.860916
v 3.352687 2.981873 2.860916
v 3.352687 2.939901 2.860916
v 3.352687 2.897929 2.860916
v 3.352687 2.855957 2.860916
v 3.352687 2.813985 2.860916
v 3.352687 2.772013 2.860916
v 3.352687 2.730041 2.860916
v 3.352687 2.688068 2.860916
v 3.352687 2.646096 2.860916
v 3.352687 2.604125 2.860916
v 3.352687 2.562153 2.860916
v 3.352687 2.520181 2.860916
v 3.352687 2.478209 2.860916
v 3.352687 2.436236 2.860916
v 3.352687 2.394264 2.860916
v 3.352687 2.352293 2.860916
v 3.352687 2.310320 2.860916
v 3.352687 2.268348 2.860916
v 3.352687 2.226377 2.860916
v 3.352687 2.184404 2.860916
v 3.352687 2.142432 2.860916
v 3.352687 2.100461 2.860916
v 3.352687 2.058488 2.860916
v 3.352687 2.016516 2.860916
v 3.352687 1.974545 2.860916
v 3.352687 1.932572 2.860916
v 3.352687 1.890600 2.860916
v 3.352687 1.848629 2.860916
v 3.352687 1.806656 2.860916
v 3.352687 1.764684 2.860916
v 3.352687 1.722713 2.860916
v 3.352687 1.680740 2.860916
v 3.352687 1.638768 2.860916
v 3.352687 1.596797 2.860916
v 3.352687 1.554824 2.860916
v 3.412515 1.554824 1.851165
v 3.412515 1.512852 1.851165
v 3.352687 1.512852 1.851165
v 3.412515 3.863285 1.851165
v 3.352687 3.863285 1.851165
v 3.352687 1.554824 1.851165
v 3.412515 3.821313 1.851165
v 3.352687 3.821313 1.851165
vn -1.0000 0.0000 0.0000
vn 1.0000 0.0000 0.0000
vn 0.0000 0.0000 -1.0000
vn 0.0000 1.0000 0.0000
vn 0.0000 -1.0000 0.0000
vn 0.0000 0.0000 1.0000
usemtl None
s off
f 63//1 2//1 4//1 64//1
f 3//1 118//1 229//1 230//1
f 119//2 8//2 6//2 174//2
f 174//3 6//3 2//3 63//3
f 3//4 7//4 5//4 1//4
f 8//5 4//5 2//5 6//5
f 5//3 228//3 9//3 1//3
f 228//3 227//3 10//3 9//3
f 227//3 226//3 11//3 10//3
f 226//3 225//3 12//3 11//3
f 225//3 224//3 13//3 12//3
f 224//3 223//3 14//3 13//3
f 223//3 222//3 15//3 14//3
f 222//3 221//3 16//3 15//3
f 221//3 220//3 17//3 16//3
f 220//3 219//3 18//3 17//3
f 219//3 218//3 19//3 18//3
f 218//3 217//3 20//3 19//3
f 217//3 216//3 21//3 20//3
f 216//3 215//3 22//3 21//3
f 215//3 214//3 23//3 22//3
f 214//3 213//3 24//3 23//3
f 213//3 212//3 25//3 24//3
f 212//3 211//3 26//3 25//3
f 211//3 210//3 27//3 26//3
f 210//3 209//3 28//3 27//3
f 209//3 208//3 29//3 28//3
f 208//3 207//3 30//3 29//3
f 207//3 206//3 31//3 30//3
f 206//3 205//3 32//3 31//3
f 205//3 204//3 33//3 32//3
f 204//3 203//3 34//3 33//3
f 203//3 202//3 35//3 34//3
f 202//3 201//3 36//3 35//3
f 201//3 200//3 37//3 36//3
f 200//3 199//3 38//3 37//3
f 199//3 198//3 39//3 38//3
f 198//3 197//3 40//3 39//3
f 197//3 196//3 41//3 40//3
f 196//3 195//3 42//3 41//3
f 195//3 194//3 43//3 42//3
f 194//3 193//3 44//3 43//3
f 193//3 192//3 45//3 44//3
f 192//3 191//3 46//3 45//3
f 191//3 190//3 47//3 46//3
f 190//3 189//3 48//3 47//3
f 189//3 188//3 49//3 48//3
f 188//3 187//3 50//3 49//3
f 187//3 186//3 51//3 50//3
f 186//3 185//3 52//3 51//3
f 185//3 184//3 53//3 52//3
f 184//3 183//3 54//3 53//3
f 183//3 182//3 55//3 54//3
f 182//3 181//3 56//3 55//3
f 181//3 180//3 57//3 56//3
f 180//3 179//3 58//3 57//3
f 179//3 178//3 59//3 58//3
f 178//3 177//3 60//3 59//3
f 177//3 176//3 61//3 60//3
f 176//3 175//3 62//3 61//3
f 175//3 174//3 63//3 62//3
f 7//2 173//2 228//2 5//2
f 173//2 172//2 227//2 228//2
f 172//2 171//2 226//2 227//2
f 171//2 170//2 225//2 226//2
f 170//2 169//2 224//2 225//2
f 169//2 168//2 223//2 224//2
f 168//2 167//2 222//2 223//2
f 167//2 166//2 221//2 222//2
f 166//2 165//2 220//2 221//2
f 165//2 164//2 219//2 220//2
f 164//2 163//2 218//2 219//2
f 163//2 162//2 217//2 218//2
f 162//2 161//2 216//2 217//2
f 161//2 160//2 215//2 216//2
f 160//2 159//2 214//2 215//2
f 159//2 158//2 213//2 214//2
f 158//2 157//2 212//2 213//2
f 157//2 156//2 211//2 212//2
f 156//2 155//2 210//2 211//2
f 155//2 154//2 209//2 210//2
f 154//2 153//2 208//2 209//2
f 153//2 152//2 207//2 208//2
f 152//2 151//2 206//2 207//2
f 151//2 150//2 205//2 206//2
f 150//2 149//2 204//2 205//2
f 149//2 148//2 203//2 204//2
f 148//2 147//2 202//2 203//2
f 147//2 146//2 201//2 202//2
f 146//2 145//2 200//2 201//2
f 145//2 144//2 199//2 200//2
f 144//2 143//2 198//2 199//2
f 143//2 142//2 197//2 198//2
f 142//2 141//2 196//2 197//2
f 141//2 140//2 195//2 196//2
f 140//2 139//2 194//2 195//2
f 139//2 138//2 193//2 194//2
f 138//2 137//2 192//2 193//2
f 137//2 136//2 191//2 192//2
f 136//2 135//2 190//2 191//2
f 135//2 134//2 189//2 190//2
f 134//2 133//2 188//2 189//2
f 133//2 132//2 187//2 188//2
f 132//2 131//2 186//2 187//2
f 131//2 130//2 185//2 186//2
f 130//2 129//2 184//2 185//2
f 129//2 128//2 183//2 184//2
f 128//2 127//2 182//2 183//2
f 127//2 126//2 181//2 182//2
f 126//2 125//2 180//2 181//2
f 125//2 124//2 179//2 180//2
f 124//2 123//2 178//2 179//2
f 123//2 122//2 177//2 178//2
f 122//2 121//2 176//2 177//2
f 121//2 120//2 175//2 176//2
f 120//2 119//2 174//2 175//2
f 4//5 8//5 233//5 232//5
f 118//6 117//6 172//6 173//6
f 117//6 116//6 171//6 172//6
f 116//6 115//6 170//6 171//6
f 115//6 114//6 169//6 170//6
f 114//6 113//6 168//6 169//6
f 113//6 112//6 167//6 168//6
f 112//6 111//6 166//6 167//6
f 111//6 110//6 165//6 166//6
f 110//6 109//6 164//6 165//6
f 109//6 108//6 163//6 164//6
f 108//6 107//6 162//6 163//6
f 107//6 106//6 161//6 162//6
f 106//6 105//6 160//6 161//6
f 105//6 104//6 159//6 160//6
f 104//6 103//6 158//6 159//6
f 103//6 102//6 157//6 158//6
f 102//6 101//6 156//6 157//6
f 101//6 100//6 155//6 156//6
f 100//6 99//6 154//6 155//6
f 99//6 98//6 153//6 154//6
f 98//6 97//6 152//6 153//6
f 97//6 96//6 151//6 152//6
f 96//6 95//6 150//6 151//6
f 95//6 94//6 149//6 150//6
f 94//6 93//6 148//6 149//6
f 93//6 92//6 147//6 148//6
f 92//6 91//6 146//6 147//6
f 91//6 90//6 145//6 146//6
f 90//6 89//6 144//6 145//6
f 89//6 88//6 143//6 144//6
f 88//6 87//6 142//6 143//6
f 87//6 86//6 141//6 142//6
f 86//6 85//6 140//6 141//6
f 85//6 84//6 139//6 140//6
f 84//6 83//6 138//6 139//6
f 83//6 82//6 137//6 138//6
f 82//6 81//6 136//6 137//6
f 81//6 80//6 135//6 136//6
f 80//6 79//6 134//6 135//6
f 79//6 78//6 133//6 134//6
f 78//6 77//6 132//6 133//6
f 77//6 76//6 131//6 132//6
f 76//6 75//6 130//6 131//6
f 75//6 74//6 129//6 130//6
f 74//6 73//6 128//6 129//6
f 73//6 72//6 127//6 128//6
f 72//6 71//6 126//6 127//6
f 71//6 70//6 125//6 126//6
f 70//6 69//6 124//6 125//6
f 69//6 68//6 123//6 124//6
f 68//6 67//6 122//6 123//6
f 67//6 66//6 121//6 122//6
f 66//6 65//6 120//6 121//6
f 65//6 64//6 119//6 120//6
f 1//1 9//1 118//1 3//1
f 9//1 10//1 117//1 118//1
f 10//1 11//1 116//1 117//1
f 11//1 12//1 115//1 116//1
f 12//1 13//1 114//1 115//1
f 13//1 14//1 113//1 114//1
f 14//1 15//1 112//1 113//1
f 15//1 16//1 111//1 112//1
f 16//1 17//1 110//1 111//1
f 17//1 18//1 109//1 110//1
f 18//1 19//1 108//1 109//1
f 19//1 20//1 107//1 108//1
f 20//1 21//1 106//1 107//1
f 21//1 22//1 105//1 106//1
f 22//1 23//1 104//1 105//1
f 23//1 24//1 103//1 104//1
f 24//1 25//1 102//1 103//1
f 25//1 26//1 101//1 102//1
f 26//1 27//1 100//1 101//1
f 27//1 28//1 99//1 100//1
f 28//1 29//1 98//1 99//1
f 29//1 30//1 97//1 98//1
f 30//1 31//1 96//1 97//1
f 31//1 32//1 95//1 96//1
f 32//1 33//1 94//1 95//1
f 33//1 34//1 93//1 94//1
f 34//1 35//1 92//1 93//1
f 35//1 36//1 91//1 92//1
f 36//1 37//1 90//1 91//1
f 37//1 38//1 89//1 90//1
f 38//1 39//1 88//1 89//1
f 39//1 40//1 87//1 88//1
f 40//1 41//1 86//1 87//1
f 41//1 42//1 85//1 86//1
f 42//1 43//1 84//1 85//1
f 43//1 44//1 83//1 84//1
f 44//1 45//1 82//1 83//1
f 45//1 46//1 81//1 82//1
f 46//1 47//1 80//1 81//1
f 47//1 48//1 79//1 80//1
f 48//1 49//1 78//1 79//1
f 49//1 50//1 77//1 78//1
f 50//1 51//1 76//1 77//1
f 51//1 52//1 75//1 76//1
f 52//1 53//1 74//1 75//1
f 53//1 54//1 73//1 74//1
f 54//1 55//1 72//1 73//1
f 55//1 56//1 71//1 72//1
f 56//1 57//1 70//1 71//1
f 57//1 58//1 69//1 70//1
f 58//1 59//1 68//1 69//1
f 59//1 60//1 67//1 68//1
f 60//1 61//1 66//1 67//1
f 61//1 62//1 65//1 66//1
f 62//1 63//1 64//1 65//1
f 235//6 232//6 233//6 236//6
f 230//6 229//6 234//6 231//6
f 118//5 173//5 234//5 229//5
f 8//2 119//2 236//2 233//2
f 64//1 4//1 232//1 235//1
f 173//2 7//2 231//2 234//2
f 7//4 3//4 230//4 231//4
f 119//4 64//4 235//4 236//4
